<?xml version="1.0" encoding="UTF-8"?>
<svg id="Layer_1" xmlns="http://www.w3.org/2000/svg" version="1.1" viewBox="0 0 461.4 323.2">
  <!-- Generator: Adobe Illustrator 30.6.0, SVG Export Plug-In . SVG Version: 2.1.4 Build 109)  -->
  <defs>
    <style>
      .st0 {
        fill: #fff;
      }

      .st1 {
        fill: #76df40;
      }
    </style>
  </defs>
  <path class="st0" d="M394.2,69.9h-39.6v24c-8.7-11.5-18.8-19.4-31.3-23.3-39.4-12.5-75.9-2.3-100.1,33.2-21.6,31.6-22.9,66.1-4.3,99.5,21.3,38.3,54.9,51.6,93,44.1,16-3.1,30.6-9.1,42.3-21.5,1.9,18.3-6.1,40-23.6,49.9-23.4,13.3-57.7,9.9-77.7-8.1-2.4-2.1-4.4-4.6-6.3-6.6-9.3,9.2-18.4,18.3-27.7,27.5.6.9,1.3,2,2.2,2.9,4.3,4.4,8.9,8.5,13.9,12.2,11.4,8.4,25.3,13.3,38.9,16.4,5.3,1.2,10.7,2.1,16.1,2.7,8.8.9,17.7.8,26.4-.5,23.8-3.4,48.3-16.2,61.3-37,11.9-19.1,16-40.2,16.2-62.2.3-49.7.1-99.4.1-149.1,0-1.4.1-2.7,0-3.9ZM299.6,213.8c-32.2,0-55.6-23.8-55.7-56.4,0-32.7,23.7-56.7,56-56.7,32.2,0,55.8,24.2,55.7,57-.1,32.5-23.8,56.2-56,56.1Z"/>
  <path class="st0" d="M148.2,92.5c-9-9.9-18.8-17.7-30.9-21.9-34.9-12.3-75.1-3.8-100.7,32.7-27.6,39.3-20.1,95.7,17,126.4,27.5,22.7,58.4,24.8,90.6,11.9,8.6-3.4,16.1-9.4,24.4-14.4v18h38.7V69.8h-39.1v22.8ZM93.4,213.8c-32.5,0-56.1-23.8-56.1-56.6,0-32.7,23.9-56.6,56.3-56.5,32.1.1,55.6,24.1,55.5,56.7,0,32.6-23.6,56.3-55.8,56.4Z"/>
  <path class="st1" d="M436.1,0c-14.1,0-25.5,11.4-25.6,25.3,0,14,11.3,25.3,25.5,25.3,13.8,0,25.1-11.2,25.3-25C461.6,11.7,450,0,436.1,0Z"/>
  <path class="st0" d="M416.4,69.3v169.7c0,1-.2,2,0,2.9v3.2h19c6.6,0,13.4,0,20.3,0V69h-39.3v.3Z"/>
</svg>